<svg height="256" viewBox="0 0 256 256" width="256" xmlns="http://www.w3.org/2000/svg"><g fill="#fff"><path d="m178.101 137.5c-6.6 1.4-15.5 6.4-20.6 11.7-19.4 20-13.5 51.5 12 64 5.2 2.5 6.7 2.8 16.2 2.8 9.2 0 11.2-.4 16.1-2.7 10.4-4.8 18.1-13.5 21.9-24.9 6.6-19.4-5-42.4-24.8-49.4-5.6-1.9-15.5-2.6-20.8-1.5zm-10.2 29.4 7.8 8.2-8.5 8.4-8.5 8.5v-16.8c0-9.2.3-16.6.8-16.6.4.1 4.2 3.8 8.4 8.3zm44.8 8.3v16.8l-8-8c-4.4-4.4-8-8.4-8-9 0-.8 14.9-16.5 15.7-16.5.2 0 .3 7.5.3 16.7zm-11.7 10.1 9.2 9.2h-23.9c-27.4 0-25.8 1.3-13.9-11l7.3-7.5 6.1.1 6 .1z"/><g transform="translate(30 40)"><path d="m39.86 2.402c5.01-.01 9.97.991 14.583 2.943a37.477 37.477 0 0 1 6.364 3.448 37.75 37.75 0 0 1 10.123 10.122 37.472 37.472 0 0 1 3.455 6.365 37.23 37.23 0 0 1 2.942 14.59 37.232 37.232 0 0 1 -6.397 20.945 37.75 37.75 0 0 1 -4.578 5.545 37.75 37.75 0 0 1 -5.545 4.585 37.458 37.458 0 0 1 -6.364 3.455 37.23 37.23 0 0 1 -14.583 2.942c-5.01.01-9.97-.99-14.582-2.942a37.452 37.452 0 0 1 -11.91-8.032 37.75 37.75 0 0 1 -8.046-11.918 37.235 37.235 0 0 1 -2.934-14.583 37.232 37.232 0 0 1 6.39-20.947 37.735 37.735 0 0 1 10.135-10.13 37.463 37.463 0 0 1 6.364-3.455 37.23 37.23 0 0 1 14.583-2.942v.01zm0-2.402a39.86 39.86 0 0 0 -39.86 39.867 39.86 39.86 0 0 0 39.86 39.86 39.86 39.86 0 1 0 0-79.72z"/><path d="m6.643 39.87a33.217 33.217 0 0 0 18.72 29.895l-15.846-43.415a33.095 33.095 0 0 0 -2.873 13.52h-.002zm55.64-1.675a17.5 17.5 0 0 0 -2.738-9.163 15.553 15.553 0 0 1 -3.25-7.79 5.75 5.75 0 0 1 5.578-5.897c.144-.005.29.004.432.027a33.095 33.095 0 0 0 -22.432-8.722 33.18 33.18 0 0 0 -27.75 14.97c.78.025 1.512.04 2.14.04 3.475 0 8.85-.402 8.85-.402a1.373 1.373 0 1 1 .215 2.737s-1.8.21-3.803.315l12.108 35.978 7.265-21.795-5.176-14.178a61.572 61.572 0 0 1 -3.482-.315 1.373 1.373 0 0 1 .21-2.738s5.485.403 8.75.403c3.475 0 8.855-.402 8.855-.402a1.373 1.373 0 1 1 .21 2.737s-1.8.21-3.803.315l12 35.703 3.428-10.858a38.85 38.85 0 0 0 2.402-10.965h-.01zm-21.848 4.58-9.97 28.958a33.197 33.197 0 0 0 9.385 1.352 33.143 33.143 0 0 0 11.03-1.885 3.028 3.028 0 0 1 -.25-.455zm28.563-18.84c.15 1.132.224 2.273.222 3.415a31.33 31.33 0 0 1 -2.528 11.898l-10.147 29.334a33.195 33.195 0 0 0 16.522-28.712 33.06 33.06 0 0 0 -4.064-15.935z"/></g><path d="m131.562 113v11.438h11.438v7.124h-11.438v11.438h-7.124v-11.438h-11.438v-7.124h11.438v-11.438z" opacity=".199"/></g></svg>